<?xml version="1.0" encoding="UTF-8"?>
<svg width="24px" height="24px" viewBox="0 0 24 24" version="1.1" xmlns="http://www.w3.org/2000/svg" xmlns:xlink="http://www.w3.org/1999/xlink">
    <!-- Generator: Sketch 50.2 (55047) - http://www.bohemiancoding.com/sketch -->
    <title>Artboard</title>
    <desc>Created with Sketch.</desc>
    <defs></defs>
    <g id="Artboard" stroke="none" stroke-width="1" fill="none" fill-rule="evenodd">
        <g id="like" transform="translate(12.000000, 11.500000) scale(1, -1) translate(-12.000000, -11.500000) " fill="#000000" fill-rule="nonzero">
            <path d="M22.8073922,8.47552442 C22.201232,7.96278556 21.4422998,7.68444161 20.6735113,7.68444161 L19.8948665,7.68444161 L17.0907598,7.68444161 L15.4940452,7.68444161 L15.4940452,3.97807219 C15.4940452,2.42032272 15.035729,1.29718047 14.1289528,0.637944798 C12.6948665,-0.407065817 10.7186858,0.188687898 10.6349076,0.217987261 C10.388501,0.296118896 10.2209446,0.520747346 10.2209446,0.774675159 L10.2209446,4.92053503 C10.2209446,6.27318896 9.57043121,7.42074735 8.28418891,8.33391083 C7.32320329,9.01756263 6.34250513,9.31543949 6.23901437,9.34962208 L6.09609856,9.38380467 C5.88418891,9.02732909 5.49486653,8.78805096 5.04640657,8.78805096 L1.21724846,8.78805096 C0.547022587,8.78805096 0,9.33008917 0,9.99420807 L0,21.1474989 C0,21.8116178 0.547022587,22.3536561 1.21724846,22.3536561 L5.05626283,22.3536561 C5.43080082,22.3536561 5.77084189,22.1827431 5.9926078,21.9190488 C6.60862423,22.568518 7.48090349,22.9738259 8.42710472,22.9738259 L11.6747433,22.9738259 L12.0098563,22.9738259 L18.6677618,22.9738259 C20.9297741,22.9738259 22.3737166,21.8018514 22.6299795,19.750896 L23.9556468,11.6007898 C24.1379877,10.4288153 23.699384,9.2275414 22.8073922,8.47552442 Z M5.08583162,21.1474989 C5.08583162,21.1670318 5.07104723,21.1816815 5.0513347,21.1816815 L1.21724846,21.1816815 C1.19753593,21.1816815 1.18275154,21.1670318 1.18275154,21.1474989 L1.18275154,9.99420807 C1.18275154,9.97467516 1.19753593,9.96002548 1.21724846,9.96002548 L5.05626283,9.96002548 C5.07597536,9.96002548 5.09075975,9.97467516 5.09075975,9.99420807 L5.09075975,21.1474989 L5.08583162,21.1474989 Z M22.7778234,11.4152272 L21.4570842,19.579983 C21.4570842,19.5848662 21.4570842,19.5946327 21.4521561,19.6043992 C21.2698152,21.0644841 20.3334702,21.8067346 18.6628337,21.8067346 L12.0049281,21.8067346 L11.6698152,21.8067346 L8.42217659,21.8067346 C7.3724846,21.8067346 6.46078029,21.0303015 6.29815195,20.0048238 C6.29322382,19.9706412 6.28336756,19.9364586 6.27351129,19.902276 L6.27351129,10.5460127 L6.52977413,10.487414 C6.53963039,10.487414 6.54455852,10.4825308 6.55441478,10.4825308 C6.6036961,10.4678811 7.77166324,10.1407049 8.94948665,9.31055626 C10.5609856,8.17764756 11.4086242,6.65896391 11.4086242,4.92053503 L11.4086242,1.24346497 C11.9211499,1.16045011 12.7983573,1.11650106 13.4340862,1.58529087 C14.0156057,2.01013163 14.3112936,2.81586412 14.3112936,3.97807219 L14.3112936,8.26554565 C14.3112936,8.58783864 14.5774127,8.85153291 14.9026694,8.85153291 L17.0907598,8.85153291 L19.8948665,8.85153291 L20.6735113,8.85153291 C21.1613963,8.85153291 21.6492813,9.03221231 22.0386037,9.36427176 C22.6201232,9.85747771 22.9059548,10.6436773 22.7778234,11.4152272 Z" id="Shape"></path>
        </g>
    </g>
</svg>