<?xml version="1.0" encoding="UTF-8"?>
<svg width="24px" height="24px" viewBox="0 0 24 24" version="1.1" xmlns="http://www.w3.org/2000/svg" xmlns:xlink="http://www.w3.org/1999/xlink">
    <!-- Generator: Sketch 50.2 (55047) - http://www.bohemiancoding.com/sketch -->
    <title>Artboard</title>
    <desc>Created with Sketch.</desc>
    <defs></defs>
    <g id="Artboard" stroke="none" stroke-width="1" fill="none" fill-rule="evenodd">
        <g id="trophy" transform="translate(2.000000, 0.000000)" fill="#000000" fill-rule="nonzero">
            <path d="M20.5935034,23.2699557 L16.2515973,23.2699557 L16.2515973,19.9248773 C16.2515973,19.7067042 16.1068558,19.5613038 15.8897918,19.5613038 L14.2254096,19.5613038 L14.2254096,17.7069779 C14.2254096,17.4888048 14.0806682,17.3434044 13.8636041,17.3434044 L11.8373684,17.3434044 L11.8373684,13.2348169 C11.8373684,13.1984547 11.9097391,13.1257304 11.9459245,13.1257304 C13.6826773,12.6167082 15.2385515,11.1986801 16.2516453,9.16254326 C18.5673158,7.92632596 19.9784485,5.52661569 19.9784485,2.87237022 L19.9784485,2.39971026 C19.9784485,2.18153722 19.8337071,2.03613682 19.616643,2.03613682 L17.662778,2.03613682 C17.662778,1.45439034 17.6265927,0.690832998 17.5904073,0.327259557 C17.5541739,0.145448692 17.4094325,0 17.2285538,0 L3.73247368,0 C3.55154691,0 3.40685355,0.145448692 3.37066819,0.327211268 C3.33448284,0.690784708 3.29829748,1.45434205 3.29829748,2.03608853 L1.30824714,2.03608853 C1.09113501,2.03608853 0.946441648,2.18153722 0.946441648,2.39966197 L0.946441648,2.9086841 C0.946441648,5.59929175 2.35757437,7.99900201 4.67324485,9.19885714 C5.72252403,11.234994 7.24221281,12.6166117 8.97896568,13.1620443 C9.05133638,13.1620443 9.08752174,13.2347686 9.08752174,13.2711308 L9.08752174,17.3797183 L7.06128604,17.3797183 C6.84417391,17.3797183 6.69948055,17.525167 6.69948055,17.7432918 L6.69948055,19.5976177 L5.0350984,19.5976177 C4.81798627,19.5976177 4.67329291,19.7430664 4.67329291,19.9611911 L4.67329291,23.2699074 L0.403661327,23.2699074 C0.186549199,23.2699074 0.0418558352,23.4153561 0.0418558352,23.6334809 C0.0418558352,23.8516056 0.186597254,23.9970543 0.403661327,23.9970543 C2.90025858,23.9970543 18.1330915,23.9970543 20.5935034,23.9970543 C20.8106156,23.9970543 20.9553089,23.8516056 20.9553089,23.6334809 C20.9553089,23.4153561 20.7744302,23.2699557 20.5935034,23.2699557 Z M17.7351007,2.76333199 L19.3271121,2.76333199 L19.3271121,2.90878068 C19.3271121,4.94491751 18.386389,6.83560563 16.8305149,7.99909859 C17.4094325,6.47193561 17.7351007,4.690334 17.7351007,2.76333199 Z M1.67005263,2.90873239 L1.67005263,2.7632837 L3.26206407,2.7632837 C3.26206407,4.65397183 3.58768421,6.43557344 4.16664989,7.96268813 C2.61077574,6.79919517 1.67005263,4.94486922 1.67005263,2.90873239 Z M5.28829977,8.76260765 C4.45608467,7.09009256 3.98572311,5.01759356 3.98572311,2.76333199 C3.98572311,2.25430986 4.02190847,1.27257948 4.05809382,0.727195171 L16.9390709,0.727195171 C16.9752563,1.30894165 17.0114416,2.29062374 17.0114416,2.76333199 C17.0114416,5.01759356 16.5772654,7.09009256 15.7450503,8.76260765 C14.8043272,10.6532958 13.3931945,11.9622374 11.801135,12.4348974 C11.4031442,12.5439839 11.1498467,12.8711952 11.1498467,13.2348169 L11.1498467,17.3434044 L9.88345538,17.3434044 L9.88345538,13.2348169 C9.84727002,12.8712435 9.59397254,12.5439839 9.23216705,12.4348974 C7.64015561,11.9622374 6.22907094,10.6532958 5.28829977,8.76260765 Z M7.45927689,18.1069618 L13.5017506,18.1069618 L13.5017506,19.5977143 L7.45927689,19.5977143 L7.45927689,18.1069618 Z M15.5641716,23.2699557 L5.46922654,23.2699557 L5.46922654,20.288499 C8.61711213,20.288499 7.35072082,20.288499 15.5641716,20.288499 L15.5641716,23.2699557 Z" id="Shape"></path>
        </g>
    </g>
</svg>